<mxfile host="app.diagrams.net" agent="Mozilla/5.0 (Macintosh; Intel Mac OS X 10_15_7) AppleWebKit/537.36 (KHTML, like Gecko) Chrome/137.0.0.0 Safari/537.36" version="27.1.0">
  <diagram name="Page-1" id="f-pgesh5ZNu8k3brizg-">
    <mxGraphModel dx="1234" dy="790" grid="1" gridSize="10" guides="1" tooltips="1" connect="1" arrows="1" fold="1" page="1" pageScale="1" pageWidth="1169" pageHeight="827" math="0" shadow="0">
      <root>
        <mxCell id="0" />
        <mxCell id="1" parent="0" />
        <mxCell id="RA6-C4GiuQ81NIMwNoql-18" value="AZ us-east-2b" style="fillColor=none;strokeColor=#147EBA;dashed=1;verticalAlign=top;fontStyle=0;fontColor=#147EBA;whiteSpace=wrap;html=1;container=0;" parent="1" vertex="1">
          <mxGeometry x="728.9951986146452" y="293.5" width="254.43034351145036" height="360" as="geometry" />
        </mxCell>
        <mxCell id="WIZIczAgmzSDIAD61xHs-6" value="AZ us-east-2a" style="fillColor=none;strokeColor=#147EBA;dashed=1;verticalAlign=top;fontStyle=0;fontColor=#147EBA;whiteSpace=wrap;html=1;container=0;" parent="1" vertex="1">
          <mxGeometry x="110.00482824427485" y="293.5" width="254.43034351145033" height="360" as="geometry" />
        </mxCell>
        <mxCell id="RA6-C4GiuQ81NIMwNoql-35" value="" style="group" parent="1" vertex="1" connectable="0">
          <mxGeometry x="420.00112454057114" y="293.5" width="269.99887545942886" height="360" as="geometry" />
        </mxCell>
        <mxCell id="WIZIczAgmzSDIAD61xHs-15" value="AZ us-east-2b" style="fillColor=none;strokeColor=#147EBA;dashed=1;verticalAlign=top;fontStyle=0;fontColor=#147EBA;whiteSpace=wrap;html=1;container=0;" parent="RA6-C4GiuQ81NIMwNoql-35" vertex="1">
          <mxGeometry width="254.43034351145033" height="360" as="geometry" />
        </mxCell>
        <mxCell id="RA6-C4GiuQ81NIMwNoql-44" value="" style="group" parent="RA6-C4GiuQ81NIMwNoql-35" vertex="1" connectable="0">
          <mxGeometry x="12.21517175572518" y="40" width="257.7837037037037" height="130" as="geometry" />
        </mxCell>
        <mxCell id="WIZIczAgmzSDIAD61xHs-16" value="public-subnet-2 -&amp;nbsp;10.0.2.0/24" style="points=[[0,0],[0.25,0],[0.5,0],[0.75,0],[1,0],[1,0.25],[1,0.5],[1,0.75],[1,1],[0.75,1],[0.5,1],[0.25,1],[0,1],[0,0.75],[0,0.5],[0,0.25]];outlineConnect=0;gradientColor=none;html=1;whiteSpace=wrap;fontSize=12;fontStyle=0;container=0;pointerEvents=0;collapsible=0;recursiveResize=0;shape=mxgraph.aws4.group;grIcon=mxgraph.aws4.group_security_group;grStroke=0;strokeColor=#7AA116;fillColor=#F2F6E8;verticalAlign=top;align=left;spacingLeft=30;fontColor=#248814;dashed=0;" parent="RA6-C4GiuQ81NIMwNoql-44" vertex="1">
          <mxGeometry width="230.00000000000003" height="130" as="geometry" />
        </mxCell>
        <mxCell id="WIZIczAgmzSDIAD61xHs-18" value="nat-gateway-2" style="sketch=0;outlineConnect=0;fontColor=#232F3E;gradientColor=none;fillColor=#8C4FFF;strokeColor=none;dashed=0;verticalLabelPosition=bottom;verticalAlign=top;align=center;html=1;fontSize=12;fontStyle=0;aspect=fixed;pointerEvents=1;shape=mxgraph.aws4.nat_gateway;container=0;" parent="RA6-C4GiuQ81NIMwNoql-44" vertex="1">
          <mxGeometry x="90.00386109036597" y="40" width="50" height="50" as="geometry" />
        </mxCell>
        <mxCell id="RA6-C4GiuQ81NIMwNoql-21" value="public-nacl" style="sketch=0;outlineConnect=0;fontColor=#232F3E;gradientColor=none;fillColor=#8C4FFF;strokeColor=none;dashed=0;verticalLabelPosition=bottom;verticalAlign=top;align=center;html=1;fontSize=12;fontStyle=0;pointerEvents=1;shape=mxgraph.aws4.network_access_control_list;aspect=fixed;" parent="RA6-C4GiuQ81NIMwNoql-44" vertex="1">
          <mxGeometry x="207.78370370370368" y="40" width="50" height="50" as="geometry" />
        </mxCell>
        <mxCell id="WIZIczAgmzSDIAD61xHs-17" value="private-subnet-2 -&amp;nbsp;10.0.12.0/24" style="points=[[0,0],[0.25,0],[0.5,0],[0.75,0],[1,0],[1,0.25],[1,0.5],[1,0.75],[1,1],[0.75,1],[0.5,1],[0.25,1],[0,1],[0,0.75],[0,0.5],[0,0.25]];outlineConnect=0;gradientColor=none;html=1;fontSize=12;fontStyle=0;container=0;pointerEvents=0;collapsible=0;recursiveResize=0;shape=mxgraph.aws4.group;grIcon=mxgraph.aws4.group_security_group;grStroke=0;strokeColor=#00A4A6;fillColor=#E6F6F7;verticalAlign=top;align=left;spacingLeft=30;fontColor=#147EBA;dashed=0;whiteSpace=wrap;" parent="RA6-C4GiuQ81NIMwNoql-35" vertex="1">
          <mxGeometry x="12.21517175572518" y="190" width="230" height="130" as="geometry" />
        </mxCell>
        <mxCell id="RA6-C4GiuQ81NIMwNoql-47" value="private-nacl" style="sketch=0;outlineConnect=0;fontColor=#232F3E;gradientColor=none;fillColor=#8C4FFF;strokeColor=none;dashed=0;verticalLabelPosition=bottom;verticalAlign=top;align=center;html=1;fontSize=12;fontStyle=0;aspect=fixed;pointerEvents=1;shape=mxgraph.aws4.network_access_control_list;" parent="RA6-C4GiuQ81NIMwNoql-35" vertex="1">
          <mxGeometry x="219.99887545942886" y="230" width="50" height="50" as="geometry" />
        </mxCell>
        <mxCell id="RA6-C4GiuQ81NIMwNoql-64" style="edgeStyle=orthogonalEdgeStyle;rounded=0;orthogonalLoop=1;jettySize=auto;html=1;dashed=1;startArrow=classic;startFill=0;endArrow=none;" parent="RA6-C4GiuQ81NIMwNoql-35" source="WIZIczAgmzSDIAD61xHs-18" target="WIZIczAgmzSDIAD61xHs-17" edge="1">
          <mxGeometry relative="1" as="geometry" />
        </mxCell>
        <mxCell id="WIZIczAgmzSDIAD61xHs-19" value="&lt;h1&gt;Networking Components&lt;/h1&gt;" style="text;html=1;align=center;verticalAlign=middle;resizable=0;points=[];autosize=1;strokeColor=none;fillColor=none;" parent="1" vertex="1">
          <mxGeometry x="430" y="18" width="310" height="70" as="geometry" />
        </mxCell>
        <mxCell id="WIZIczAgmzSDIAD61xHs-4" value="VPC (10.0.0.0/16)&lt;span style=&quot;background-color: transparent; color: light-dark(rgb(170, 183, 184), rgb(74, 85, 86));&quot;&gt;&amp;nbsp;&lt;/span&gt;" style="points=[[0,0],[0.25,0],[0.5,0],[0.75,0],[1,0],[1,0.25],[1,0.5],[1,0.75],[1,1],[0.75,1],[0.5,1],[0.25,1],[0,1],[0,0.75],[0,0.5],[0,0.25]];outlineConnect=0;gradientColor=none;html=1;whiteSpace=wrap;fontSize=12;fontStyle=0;container=0;pointerEvents=0;collapsible=0;recursiveResize=0;shape=mxgraph.aws4.group;grIcon=mxgraph.aws4.group_vpc2;strokeColor=#8C4FFF;fillColor=none;verticalAlign=top;align=left;spacingLeft=30;fontColor=#AAB7B8;dashed=0;" parent="1" vertex="1">
          <mxGeometry x="60" y="124" width="980" height="579" as="geometry" />
        </mxCell>
        <mxCell id="RA6-C4GiuQ81NIMwNoql-52" style="edgeStyle=orthogonalEdgeStyle;rounded=0;orthogonalLoop=1;jettySize=auto;html=1;" parent="1" source="WIZIczAgmzSDIAD61xHs-12" target="RA6-C4GiuQ81NIMwNoql-38" edge="1">
          <mxGeometry relative="1" as="geometry" />
        </mxCell>
        <mxCell id="WIZIczAgmzSDIAD61xHs-12" value="IGW" style="sketch=0;outlineConnect=0;fontColor=#232F3E;gradientColor=none;fillColor=#8C4FFF;strokeColor=none;dashed=0;verticalLabelPosition=bottom;verticalAlign=top;align=center;html=1;fontSize=12;fontStyle=0;aspect=fixed;pointerEvents=1;shape=mxgraph.aws4.internet_gateway;" parent="1" vertex="1">
          <mxGeometry x="525" y="100" width="50" height="50" as="geometry" />
        </mxCell>
        <mxCell id="RA6-C4GiuQ81NIMwNoql-53" style="edgeStyle=orthogonalEdgeStyle;rounded=0;orthogonalLoop=1;jettySize=auto;html=1;" parent="1" source="RA6-C4GiuQ81NIMwNoql-38" target="WIZIczAgmzSDIAD61xHs-4" edge="1">
          <mxGeometry relative="1" as="geometry">
            <Array as="points">
              <mxPoint x="790" y="215" />
              <mxPoint x="790" y="215" />
            </Array>
          </mxGeometry>
        </mxCell>
        <mxCell id="RA6-C4GiuQ81NIMwNoql-55" style="rounded=0;orthogonalLoop=1;jettySize=auto;html=1;" parent="1" source="RA6-C4GiuQ81NIMwNoql-38" target="WIZIczAgmzSDIAD61xHs-4" edge="1">
          <mxGeometry relative="1" as="geometry" />
        </mxCell>
        <mxCell id="RA6-C4GiuQ81NIMwNoql-38" value="vpc router" style="sketch=0;outlineConnect=0;fontColor=#232F3E;gradientColor=none;fillColor=#8C4FFF;strokeColor=none;dashed=0;verticalLabelPosition=bottom;verticalAlign=top;align=center;html=1;fontSize=12;fontStyle=0;aspect=fixed;pointerEvents=1;shape=mxgraph.aws4.router;" parent="1" vertex="1">
          <mxGeometry x="525" y="190" width="50" height="50" as="geometry" />
        </mxCell>
        <mxCell id="WIZIczAgmzSDIAD61xHs-7" value="public-subnet-1 - 10.0.1.0/24" style="points=[[0,0],[0.25,0],[0.5,0],[0.75,0],[1,0],[1,0.25],[1,0.5],[1,0.75],[1,1],[0.75,1],[0.5,1],[0.25,1],[0,1],[0,0.75],[0,0.5],[0,0.25]];outlineConnect=0;gradientColor=none;html=1;whiteSpace=wrap;fontSize=12;fontStyle=0;container=0;pointerEvents=0;collapsible=0;recursiveResize=0;shape=mxgraph.aws4.group;grIcon=mxgraph.aws4.group_security_group;grStroke=0;strokeColor=#7AA116;fillColor=#F2F6E8;verticalAlign=top;align=left;spacingLeft=30;fontColor=#248814;dashed=0;" parent="1" vertex="1">
          <mxGeometry x="120.00482824427485" y="333.5" width="229.99999999999997" height="130" as="geometry" />
        </mxCell>
        <mxCell id="RA6-C4GiuQ81NIMwNoql-56" style="edgeStyle=elbowEdgeStyle;rounded=0;orthogonalLoop=1;jettySize=auto;html=1;startArrow=classic;startFill=1;" parent="1" source="RA6-C4GiuQ81NIMwNoql-40" target="RA6-C4GiuQ81NIMwNoql-38" edge="1">
          <mxGeometry relative="1" as="geometry">
            <Array as="points">
              <mxPoint x="400" y="290" />
            </Array>
          </mxGeometry>
        </mxCell>
        <mxCell id="RA6-C4GiuQ81NIMwNoql-40" value="public-nacl" style="sketch=0;outlineConnect=0;fontColor=#232F3E;gradientColor=none;fillColor=#8C4FFF;strokeColor=none;dashed=0;verticalLabelPosition=bottom;verticalAlign=top;align=center;html=1;fontSize=12;fontStyle=0;pointerEvents=1;shape=mxgraph.aws4.network_access_control_list;aspect=fixed;" parent="1" vertex="1">
          <mxGeometry x="320" y="373.5" width="50" height="50" as="geometry" />
        </mxCell>
        <mxCell id="RA6-C4GiuQ81NIMwNoql-63" style="edgeStyle=orthogonalEdgeStyle;rounded=0;orthogonalLoop=1;jettySize=auto;html=1;dashed=1;startArrow=classic;startFill=0;endArrow=none;" parent="1" source="WIZIczAgmzSDIAD61xHs-13" target="WIZIczAgmzSDIAD61xHs-8" edge="1">
          <mxGeometry relative="1" as="geometry" />
        </mxCell>
        <mxCell id="WIZIczAgmzSDIAD61xHs-13" value="nat-gateway-1" style="sketch=0;outlineConnect=0;fontColor=#232F3E;gradientColor=none;fillColor=#8C4FFF;strokeColor=none;dashed=0;verticalLabelPosition=bottom;verticalAlign=top;align=center;html=1;fontSize=12;fontStyle=0;aspect=fixed;pointerEvents=1;shape=mxgraph.aws4.nat_gateway;container=0;" parent="1" vertex="1">
          <mxGeometry x="210.0086893346408" y="373.5" width="50" height="50" as="geometry" />
        </mxCell>
        <mxCell id="WIZIczAgmzSDIAD61xHs-8" value="private-subnet-1 -&amp;nbsp;10.0.11.0/24" style="points=[[0,0],[0.25,0],[0.5,0],[0.75,0],[1,0],[1,0.25],[1,0.5],[1,0.75],[1,1],[0.75,1],[0.5,1],[0.25,1],[0,1],[0,0.75],[0,0.5],[0,0.25]];outlineConnect=0;gradientColor=none;html=1;fontSize=12;fontStyle=0;container=0;pointerEvents=0;collapsible=0;recursiveResize=0;shape=mxgraph.aws4.group;grIcon=mxgraph.aws4.group_security_group;grStroke=0;strokeColor=#00A4A6;fillColor=#E6F6F7;verticalAlign=top;align=left;spacingLeft=30;fontColor=#147EBA;dashed=0;whiteSpace=wrap;" parent="1" vertex="1">
          <mxGeometry x="120.00482824427485" y="483.5" width="229.99999999999997" height="130" as="geometry" />
        </mxCell>
        <mxCell id="RA6-C4GiuQ81NIMwNoql-57" style="edgeStyle=orthogonalEdgeStyle;rounded=0;orthogonalLoop=1;jettySize=auto;html=1;startArrow=classic;startFill=1;" parent="1" source="RA6-C4GiuQ81NIMwNoql-39" target="RA6-C4GiuQ81NIMwNoql-38" edge="1">
          <mxGeometry relative="1" as="geometry">
            <Array as="points">
              <mxPoint x="400" y="549" />
              <mxPoint x="400" y="215" />
            </Array>
          </mxGeometry>
        </mxCell>
        <mxCell id="RA6-C4GiuQ81NIMwNoql-39" value="private-nacl" style="sketch=0;outlineConnect=0;fontColor=#232F3E;gradientColor=none;fillColor=#8C4FFF;strokeColor=none;dashed=0;verticalLabelPosition=bottom;verticalAlign=top;align=center;html=1;fontSize=12;fontStyle=0;pointerEvents=1;shape=mxgraph.aws4.network_access_control_list;aspect=fixed;" parent="1" vertex="1">
          <mxGeometry x="321" y="523.5" width="50" height="50" as="geometry" />
        </mxCell>
        <mxCell id="RA6-C4GiuQ81NIMwNoql-16" value="private-subnet-2 -&amp;nbsp;10.0.13.0/24" style="points=[[0,0],[0.25,0],[0.5,0],[0.75,0],[1,0],[1,0.25],[1,0.5],[1,0.75],[1,1],[0.75,1],[0.5,1],[0.25,1],[0,1],[0,0.75],[0,0.5],[0,0.25]];outlineConnect=0;gradientColor=none;html=1;fontSize=12;fontStyle=0;container=0;pointerEvents=0;collapsible=0;recursiveResize=0;shape=mxgraph.aws4.group;grIcon=mxgraph.aws4.group_security_group;grStroke=0;strokeColor=#00A4A6;fillColor=#E6F6F7;verticalAlign=top;align=left;spacingLeft=30;fontColor=#147EBA;dashed=0;whiteSpace=wrap;" parent="1" vertex="1">
          <mxGeometry x="741.2103703703704" y="483.5" width="230.00000000000003" height="130" as="geometry" />
        </mxCell>
        <mxCell id="RA6-C4GiuQ81NIMwNoql-61" style="edgeStyle=orthogonalEdgeStyle;rounded=0;orthogonalLoop=1;jettySize=auto;html=1;startArrow=classic;startFill=1;" parent="1" source="RA6-C4GiuQ81NIMwNoql-46" target="RA6-C4GiuQ81NIMwNoql-38" edge="1">
          <mxGeometry relative="1" as="geometry">
            <Array as="points">
              <mxPoint x="1020" y="549" />
              <mxPoint x="1020" y="215" />
            </Array>
          </mxGeometry>
        </mxCell>
        <mxCell id="RA6-C4GiuQ81NIMwNoql-46" value="private-nacl" style="sketch=0;outlineConnect=0;fontColor=#232F3E;gradientColor=none;fillColor=#8C4FFF;strokeColor=none;dashed=0;verticalLabelPosition=bottom;verticalAlign=top;align=center;html=1;fontSize=12;fontStyle=0;aspect=fixed;pointerEvents=1;shape=mxgraph.aws4.network_access_control_list;" parent="1" vertex="1">
          <mxGeometry x="949" y="523.5" width="50" height="50" as="geometry" />
        </mxCell>
        <mxCell id="RA6-C4GiuQ81NIMwNoql-15" value="public-subnet-2 -&amp;nbsp;10.0.3.0/24" style="points=[[0,0],[0.25,0],[0.5,0],[0.75,0],[1,0],[1,0.25],[1,0.5],[1,0.75],[1,1],[0.75,1],[0.5,1],[0.25,1],[0,1],[0,0.75],[0,0.5],[0,0.25]];outlineConnect=0;gradientColor=none;html=1;whiteSpace=wrap;fontSize=12;fontStyle=0;container=0;pointerEvents=0;collapsible=0;recursiveResize=0;shape=mxgraph.aws4.group;grIcon=mxgraph.aws4.group_security_group;grStroke=0;strokeColor=#7AA116;fillColor=#F2F6E8;verticalAlign=top;align=left;spacingLeft=30;fontColor=#248814;dashed=0;" parent="1" vertex="1">
          <mxGeometry x="741.2103703703704" y="333.5" width="230.00000000000003" height="130" as="geometry" />
        </mxCell>
        <mxCell id="RA6-C4GiuQ81NIMwNoql-60" style="edgeStyle=orthogonalEdgeStyle;rounded=0;orthogonalLoop=1;jettySize=auto;html=1;startArrow=classic;startFill=1;" parent="1" source="RA6-C4GiuQ81NIMwNoql-45" target="RA6-C4GiuQ81NIMwNoql-38" edge="1">
          <mxGeometry relative="1" as="geometry">
            <Array as="points">
              <mxPoint x="1020" y="399" />
              <mxPoint x="1020" y="215" />
            </Array>
          </mxGeometry>
        </mxCell>
        <mxCell id="RA6-C4GiuQ81NIMwNoql-45" value="public-nacl" style="sketch=0;outlineConnect=0;fontColor=#232F3E;gradientColor=none;fillColor=#8C4FFF;strokeColor=none;dashed=0;verticalLabelPosition=bottom;verticalAlign=top;align=center;html=1;fontSize=12;fontStyle=0;aspect=fixed;pointerEvents=1;shape=mxgraph.aws4.network_access_control_list;" parent="1" vertex="1">
          <mxGeometry x="949" y="373.5" width="50" height="50" as="geometry" />
        </mxCell>
        <mxCell id="RA6-C4GiuQ81NIMwNoql-58" style="edgeStyle=orthogonalEdgeStyle;rounded=0;orthogonalLoop=1;jettySize=auto;html=1;startArrow=classic;startFill=1;" parent="1" source="RA6-C4GiuQ81NIMwNoql-47" target="RA6-C4GiuQ81NIMwNoql-38" edge="1">
          <mxGeometry relative="1" as="geometry">
            <Array as="points">
              <mxPoint x="710" y="549" />
              <mxPoint x="710" y="260" />
              <mxPoint x="550" y="260" />
            </Array>
          </mxGeometry>
        </mxCell>
        <mxCell id="RA6-C4GiuQ81NIMwNoql-59" style="edgeStyle=orthogonalEdgeStyle;rounded=0;orthogonalLoop=1;jettySize=auto;html=1;startArrow=classic;startFill=1;" parent="1" source="RA6-C4GiuQ81NIMwNoql-21" target="RA6-C4GiuQ81NIMwNoql-38" edge="1">
          <mxGeometry relative="1" as="geometry">
            <Array as="points">
              <mxPoint x="710" y="399" />
              <mxPoint x="710" y="260" />
              <mxPoint x="550" y="260" />
            </Array>
          </mxGeometry>
        </mxCell>
        <mxCell id="RA6-C4GiuQ81NIMwNoql-62" value="" style="group" parent="1" vertex="1" connectable="0">
          <mxGeometry x="1020" y="134" width="130" height="50" as="geometry" />
        </mxCell>
        <mxCell id="WIZIczAgmzSDIAD61xHs-10" value="flow-log-group" style="sketch=0;points=[[0,0,0],[0.25,0,0],[0.5,0,0],[0.75,0,0],[1,0,0],[0,1,0],[0.25,1,0],[0.5,1,0],[0.75,1,0],[1,1,0],[0,0.25,0],[0,0.5,0],[0,0.75,0],[1,0.25,0],[1,0.5,0],[1,0.75,0]];points=[[0,0,0],[0.25,0,0],[0.5,0,0],[0.75,0,0],[1,0,0],[0,1,0],[0.25,1,0],[0.5,1,0],[0.75,1,0],[1,1,0],[0,0.25,0],[0,0.5,0],[0,0.75,0],[1,0.25,0],[1,0.5,0],[1,0.75,0]];outlineConnect=0;fontColor=#232F3E;fillColor=#E7157B;strokeColor=#ffffff;dashed=0;verticalLabelPosition=bottom;verticalAlign=top;align=center;html=1;fontSize=12;fontStyle=0;aspect=fixed;shape=mxgraph.aws4.resourceIcon;resIcon=mxgraph.aws4.cloudwatch_2;" parent="RA6-C4GiuQ81NIMwNoql-62" vertex="1">
          <mxGeometry x="80" width="50" height="50" as="geometry" />
        </mxCell>
        <mxCell id="WIZIczAgmzSDIAD61xHs-9" value="vpc-flow-log" style="sketch=0;outlineConnect=0;fontColor=#232F3E;gradientColor=none;fillColor=#8C4FFF;strokeColor=none;dashed=0;verticalLabelPosition=bottom;verticalAlign=top;align=center;html=1;fontSize=12;fontStyle=0;pointerEvents=1;shape=mxgraph.aws4.flow_logs;aspect=fixed;" parent="RA6-C4GiuQ81NIMwNoql-62" vertex="1">
          <mxGeometry width="50" height="50" as="geometry" />
        </mxCell>
        <mxCell id="WIZIczAgmzSDIAD61xHs-11" style="edgeStyle=orthogonalEdgeStyle;rounded=0;orthogonalLoop=1;jettySize=auto;html=1;" parent="RA6-C4GiuQ81NIMwNoql-62" source="WIZIczAgmzSDIAD61xHs-9" target="WIZIczAgmzSDIAD61xHs-10" edge="1">
          <mxGeometry relative="1" as="geometry">
            <mxPoint x="80" y="327" as="targetPoint" />
          </mxGeometry>
        </mxCell>
        <mxCell id="RA6-C4GiuQ81NIMwNoql-65" style="edgeStyle=orthogonalEdgeStyle;rounded=0;orthogonalLoop=1;jettySize=auto;html=1;dashed=1;startArrow=classic;startFill=0;endArrow=none;" parent="1" source="WIZIczAgmzSDIAD61xHs-18" target="RA6-C4GiuQ81NIMwNoql-16" edge="1">
          <mxGeometry relative="1" as="geometry">
            <Array as="points">
              <mxPoint x="547" y="470" />
              <mxPoint x="856" y="470" />
            </Array>
          </mxGeometry>
        </mxCell>
      </root>
    </mxGraphModel>
  </diagram>
</mxfile>
